<?xml version="1.0" encoding="UTF-8"?>
<svg width="22px" height="22px" viewBox="0 0 22 22" version="1.1" xmlns="http://www.w3.org/2000/svg" xmlns:xlink="http://www.w3.org/1999/xlink">
    <!-- Generator: Sketch 53 (72520) - https://sketchapp.com -->
    <title>Enlarge Icon</title>
    <desc>Created with Sketch.</desc>
    <g id="Enlarge-Icon" stroke="none" stroke-width="1" fill="none" fill-rule="evenodd" stroke-linecap="round">
        <g id="Group-Copy-8" transform="translate(5.500000, 16.500000) rotate(-45.000000) translate(-5.500000, -16.500000) translate(0.000000, 11.000000)" stroke="#35393B" stroke-width="2">
            <g id="Group-Copy-5" transform="translate(6.000000, 5.500000) rotate(-180.000000) translate(-6.000000, -5.500000) translate(1.000000, 5.000000)" fill-rule="nonzero">
                <path d="M0,0.5 L9.76249695,0.5" id="Path-16-Copy-2"></path>
            </g>
            <polyline id="Path-2-Copy" stroke-linejoin="round" transform="translate(5.019640, 5.372371) rotate(-315.000000) translate(-5.019640, -5.372371) " points="1.82493791 1.84438288 1.66079442 8.9003589 8.37848538 8.9003589"></polyline>
        </g>
        <g id="Group-Copy-9" transform="translate(16.500000, 5.500000) rotate(-225.000000) translate(-16.500000, -5.500000) translate(11.000000, 0.000000)" stroke="#35393B" stroke-width="2">
            <g id="Group-Copy-5" transform="translate(6.000000, 5.500000) rotate(-180.000000) translate(-6.000000, -5.500000) translate(1.000000, 5.000000)" fill-rule="nonzero">
                <path d="M0,0.5 L9.76249695,0.5" id="Path-16-Copy-2"></path>
            </g>
            <polyline id="Path-2-Copy" stroke-linejoin="round" transform="translate(5.019640, 5.372371) rotate(-315.000000) translate(-5.019640, -5.372371) " points="1.82493791 1.84438288 1.66079442 8.9003589 8.37848538 8.9003589"></polyline>
        </g>
    </g>
</svg>